<svg xmlns="http://www.w3.org/2000/svg" xmlns:xlink="http://www.w3.org/1999/xlink" style="display:none"><symbol  viewBox='0 0 24 24' id='avito'>
    <circle cx="17.525" cy="17.525" r="6.487"></circle><circle cx="5.331" cy="17.525" r="3.02"></circle><circle cx="17.525" cy="5.331" r="4.175"></circle><circle cx="5.331" cy="5.331" r="5.331"></circle>
  </symbol><symbol  viewBox='0 0 448 512' id='bag'>
    <path fill="currentColor" d="M352 160v-32C352 57.42 294.579 0 224 0 153.42 0 96 57.42 96 128v32H0v272c0 44.183 35.817 80 80 80h288c44.183 0 80-35.817 80-80V160h-96zm-192-32c0-35.29 28.71-64 64-64s64 28.71 64 64v32H160v-32zm160 120c-13.255 0-24-10.745-24-24s10.745-24 24-24 24 10.745 24 24-10.745 24-24 24zm-192 0c-13.255 0-24-10.745-24-24s10.745-24 24-24 24 10.745 24 24-10.745 24-24 24z"></path>
  </symbol><symbol  viewBox='0 0 448 512' id='bars'>
    <path fill="currentColor" d="M16 132h416c8.837 0 16-7.163 16-16V76c0-8.837-7.163-16-16-16H16C7.163 60 0 67.163 0 76v40c0 8.837 7.163 16 16 16zm0 160h416c8.837 0 16-7.163 16-16v-40c0-8.837-7.163-16-16-16H16c-8.837 0-16 7.163-16 16v40c0 8.837 7.163 16 16 16zm0 160h416c8.837 0 16-7.163 16-16v-40c0-8.837-7.163-16-16-16H16c-8.837 0-16 7.163-16 16v40c0 8.837 7.163 16 16 16z"></path>
  </symbol><symbol  viewBox='0 0 576 512' id='cart'>
    <path fill="currentColor" d="M528.12 301.319l47.273-208C578.806 78.301 567.391 64 551.99 64H159.208l-9.166-44.81C147.758 8.021 137.93 0 126.529 0H24C10.745 0 0 10.745 0 24v16c0 13.255 10.745 24 24 24h69.883l70.248 343.435C147.325 417.1 136 435.222 136 456c0 30.928 25.072 56 56 56s56-25.072 56-56c0-15.674-6.447-29.835-16.824-40h209.647C430.447 426.165 424 440.326 424 456c0 30.928 25.072 56 56 56s56-25.072 56-56c0-22.172-12.888-41.332-31.579-50.405l5.517-24.276c3.413-15.018-8.002-29.319-23.403-29.319H218.117l-6.545-32h293.145c11.206 0 20.92-7.754 23.403-18.681z"></path>
  </symbol><symbol  viewBox='0 0 576 512' id='home'>
    <path fill="currentColor" d="M280.37 148.26L96 300.11V464a16 16 0 0016 16l112.06-.29a16 16 0 0015.92-16V368a16 16 0 0116-16h64a16 16 0 0116 16v95.64a16 16 0 0016 16.05L464 480a16 16 0 0016-16V300L295.67 148.26a12.19 12.19 0 00-15.3 0zM571.6 251.47L488 182.56V44.05a12 12 0 00-12-12h-56a12 12 0 00-12 12v72.61L318.47 43a48 48 0 00-61 0L4.34 251.47a12 12 0 00-1.6 16.9l25.5 31A12 12 0 0045.15 301l235.22-193.74a12.19 12.19 0 0115.3 0L530.9 301a12 12 0 0016.9-1.6l25.5-31a12 12 0 00-1.7-16.93z"></path>
  </symbol><symbol  viewBox='0 0 24 24' id='instagram'>
    <path d="M11.999 5.843c-3.404 0-6.15 2.746-6.15 6.15s2.746 6.15 6.15 6.15 6.15-2.746 6.15-6.15-2.746-6.15-6.15-6.15zm0 10.148c-2.2 0-3.998-1.793-3.998-3.998s1.793-3.998 3.998-3.998 3.998 1.793 3.998 3.998-1.799 3.998-3.998 3.998zm7.835-10.399c0 .797-.642 1.434-1.434 1.434-.797 0-1.434-.642-1.434-1.434s.642-1.434 1.434-1.434c.792-.001 1.434.642 1.434 1.434zm4.073 1.456c-.091-1.921-.53-3.624-1.938-5.026C20.567.62 18.865.181 16.943.084c-1.98-.112-7.916-.112-9.896 0-1.916.091-3.618.53-5.026 1.932S.181 5.121.084 7.042c-.112 1.98-.112 7.916 0 9.896.091 1.921.53 3.624 1.938 5.026 1.408 1.402 3.104 1.841 5.026 1.938 1.98.112 7.916.112 9.896 0 1.921-.091 3.624-.53 5.026-1.938 1.402-1.402 1.841-3.104 1.938-5.026.112-1.98.112-7.91-.001-9.89zm-2.558 12.016c-.417 1.049-1.226 1.857-2.28 2.28-1.579.626-5.326.482-7.07.482s-5.497.139-7.07-.482c-1.049-.417-1.857-1.226-2.28-2.28-.626-1.579-.482-5.326-.482-7.07s-.139-5.497.482-7.07c.417-1.049 1.226-1.857 2.28-2.28 1.579-.626 5.326-.482 7.07-.482s5.497-.139 7.07.482c1.049.417 1.857 1.226 2.28 2.28.626 1.579.482 5.326.482 7.07s.144 5.496-.482 7.07z"></path>
  </symbol><symbol  viewBox='0 0 512 512' id='search'>
    <path fill="currentColor" d="M505 442.7L405.3 343c-4.5-4.5-10.6-7-17-7H372c27.6-35.3 44-79.7 44-128C416 93.1 322.9 0 208 0S0 93.1 0 208s93.1 208 208 208c48.3 0 92.7-16.4 128-44v16.3c0 6.4 2.5 12.5 7 17l99.7 99.7c9.4 9.4 24.6 9.4 33.9 0l28.3-28.3c9.4-9.4 9.4-24.6.1-34zM208 336c-70.7 0-128-57.2-128-128 0-70.7 57.2-128 128-128 70.7 0 128 57.2 128 128 0 70.7-57.2 128-128 128z"></path>
  </symbol><symbol  viewBox='0 0 576 512' id='star'>
    <path fill="currentColor" d="M259.3 17.8L194 150.2 47.9 171.5c-26.2 3.8-36.7 36.1-17.7 54.6l105.7 103-25 145.5c-4.5 26.3 23.2 46 46.4 33.7L288 439.6l130.7 68.7c23.2 12.2 50.9-7.4 46.4-33.7l-25-145.5 105.7-103c19-18.5 8.5-50.8-17.7-54.6L382 150.2 316.7 17.8c-11.7-23.6-45.6-23.9-57.4 0z"></path>
  </symbol><symbol  viewBox='0 0 512 512' id='times-circle'>
    <path fill="currentColor" d="M256 8C119 8 8 119 8 256s111 248 248 248 248-111 248-248S393 8 256 8zm121.6 313.1c4.7 4.7 4.7 12.3 0 17L338 377.6c-4.7 4.7-12.3 4.7-17 0L256 312l-65.1 65.6c-4.7 4.7-12.3 4.7-17 0L134.4 338c-4.7-4.7-4.7-12.3 0-17l65.6-65-65.6-65.1c-4.7-4.7-4.7-12.3 0-17l39.6-39.6c4.7-4.7 12.3-4.7 17 0l65 65.7 65.1-65.6c4.7-4.7 12.3-4.7 17 0l39.6 39.6c4.7 4.7 4.7 12.3 0 17L312 256l65.6 65.1z"></path>
  </symbol><symbol  viewBox='0 0 352 512' id='times'>
    <path fill="currentColor" d="M242.72 256l100.07-100.07c12.28-12.28 12.28-32.19 0-44.48l-22.24-22.24c-12.28-12.28-32.19-12.28-44.48 0L176 189.28 75.93 89.21c-12.28-12.28-32.19-12.28-44.48 0L9.21 111.45c-12.28 12.28-12.28 32.19 0 44.48L109.28 256 9.21 356.07c-12.28 12.28-12.28 32.19 0 44.48l22.24 22.24c12.28 12.28 32.2 12.28 44.48 0L176 322.72l100.07 100.07c12.28 12.28 32.2 12.28 44.48 0l22.24-22.24c12.28-12.28 12.28-32.19 0-44.48L242.72 256z"></path>
  </symbol><symbol  viewBox='0 0 640 512' id='user-cog'>
    <path fill="currentColor" d="M610.5 373.3c2.6-14.1 2.6-28.5 0-42.6l25.8-14.9c3-1.7 4.3-5.2 3.3-8.5-6.7-21.6-18.2-41.2-33.2-57.4-2.3-2.5-6-3.1-9-1.4l-25.8 14.9c-10.9-9.3-23.4-16.5-36.9-21.3v-29.8c0-3.4-2.4-6.4-5.7-7.1-22.3-5-45-4.8-66.2 0-3.3.7-5.7 3.7-5.7 7.1v29.8c-13.5 4.8-26 12-36.9 21.3l-25.8-14.9c-2.9-1.7-6.7-1.1-9 1.4-15 16.2-26.5 35.8-33.2 57.4-1 3.3.4 6.8 3.3 8.5l25.8 14.9c-2.6 14.1-2.6 28.5 0 42.6l-25.8 14.9c-3 1.7-4.3 5.2-3.3 8.5 6.7 21.6 18.2 41.1 33.2 57.4 2.3 2.5 6 3.1 9 1.4l25.8-14.9c10.9 9.3 23.4 16.5 36.9 21.3v29.8c0 3.4 2.4 6.4 5.7 7.1 22.3 5 45 4.8 66.2 0 3.3-.7 5.7-3.7 5.7-7.1v-29.8c13.5-4.8 26-12 36.9-21.3l25.8 14.9c2.9 1.7 6.7 1.1 9-1.4 15-16.2 26.5-35.8 33.2-57.4 1-3.3-.4-6.8-3.3-8.5l-25.8-14.9zM496 400.5c-26.8 0-48.5-21.8-48.5-48.5s21.8-48.5 48.5-48.5 48.5 21.8 48.5 48.5-21.7 48.5-48.5 48.5zM224 256c70.7 0 128-57.3 128-128S294.7 0 224 0 96 57.3 96 128s57.3 128 128 128zm201.2 226.5c-2.3-1.2-4.6-2.6-6.8-3.9l-7.9 4.6c-6 3.4-12.8 5.3-19.6 5.3-10.9 0-21.4-4.6-28.9-12.6-18.3-19.8-32.3-43.9-40.2-69.6-5.5-17.7 1.9-36.4 17.9-45.7l7.9-4.6c-.1-2.6-.1-5.2 0-7.8l-7.9-4.6c-16-9.2-23.4-28-17.9-45.7.9-2.9 2.2-5.8 3.2-8.7-3.8-.3-7.5-1.2-11.4-1.2h-16.7c-22.2 10.2-46.9 16-72.9 16s-50.6-5.8-72.9-16h-16.7C60.2 288 0 348.2 0 422.4V464c0 26.5 21.5 48 48 48h352c10.1 0 19.5-3.2 27.2-8.5-1.2-3.8-2-7.7-2-11.8v-9.2z"></path>
  </symbol><symbol  viewBox='0 0 448 512' id='user'>
    <path fill="currentColor" d="M224 256c70.7 0 128-57.3 128-128S294.7 0 224 0 96 57.3 96 128s57.3 128 128 128zm89.6 32h-16.7c-22.2 10.2-46.9 16-72.9 16s-50.6-5.8-72.9-16h-16.7C60.2 288 0 348.2 0 422.4V464c0 26.5 21.5 48 48 48h352c26.5 0 48-21.5 48-48v-41.6c0-74.2-60.2-134.4-134.4-134.4z"></path>
  </symbol><symbol  viewBox='0 0 24 24' id='vk'>
    <path d="M23.44 5.845c.165-.556 0-.966-.792-.966h-2.621c-.668 0-.975.352-1.139.743 0 0-1.335 3.253-3.222 5.362-.61.61-.89.805-1.224.805-.165 0-.418-.196-.418-.752V5.845c0-.668-.187-.966-.739-.966H9.164c-.418 0-.668.312-.668.601 0 .632.943.779 1.041 2.559v3.863c0 .846-.151 1.001-.485 1.001-.89 0-3.053-3.266-4.334-7.005-.258-.725-.512-1.018-1.184-1.018H.913c-.748 0-.899.352-.899.743 0 .694.89 4.143 4.143 8.7 2.167 3.111 5.22 4.797 7.997 4.797 1.669 0 1.874-.374 1.874-1.019 0-2.973-.151-3.253.685-3.253.387 0 1.055.196 2.612 1.696 1.78 1.78 2.074 2.577 3.071 2.577h2.621c.748 0 1.126-.374.908-1.113-.498-1.553-3.867-4.748-4.019-4.962-.387-.498-.276-.721 0-1.166.005-.005 3.204-4.508 3.534-6.035z"></path>
  </symbol></svg>