<svg xmlns="http://www.w3.org/2000/svg" xmlns:xlink="http://www.w3.org/1999/xlink" style="display:none"><symbol  viewBox='0 0 320 512' id='angle-down'>
    <path fill="currentColor" d="M143 352.3L7 216.3c-9.4-9.4-9.4-24.6 0-33.9l22.6-22.6c9.4-9.4 24.6-9.4 33.9 0l96.4 96.4 96.4-96.4c9.4-9.4 24.6-9.4 33.9 0l22.6 22.6c9.4 9.4 9.4 24.6 0 33.9l-136 136c-9.2 9.4-24.4 9.4-33.8 0z"></path>
  </symbol><symbol  viewBox='0 0 256 512' id='angle-left'>
    <path fill="currentColor" d="M31.7 239l136-136c9.4-9.4 24.6-9.4 33.9 0l22.6 22.6c9.4 9.4 9.4 24.6 0 33.9L127.9 256l96.4 96.4c9.4 9.4 9.4 24.6 0 33.9L201.7 409c-9.4 9.4-24.6 9.4-33.9 0l-136-136c-9.5-9.4-9.5-24.6-.1-34z"></path>
  </symbol><symbol  viewBox='0 0 256 512' id='angle-right'>
    <path fill="currentColor" d="M224.3 273l-136 136c-9.4 9.4-24.6 9.4-33.9 0l-22.6-22.6c-9.4-9.4-9.4-24.6 0-33.9l96.4-96.4-96.4-96.4c-9.4-9.4-9.4-24.6 0-33.9L54.3 103c9.4-9.4 24.6-9.4 33.9 0l136 136c9.5 9.4 9.5 24.6.1 34z"></path>
  </symbol><symbol  viewBox='0 0 320 512' id='angle-up'>
    <path fill="currentColor" d="M177 159.7l136 136c9.4 9.4 9.4 24.6 0 33.9l-22.6 22.6c-9.4 9.4-24.6 9.4-33.9 0L160 255.9l-96.4 96.4c-9.4 9.4-24.6 9.4-33.9 0L7 329.7c-9.4-9.4-9.4-24.6 0-33.9l136-136c9.4-9.5 24.6-9.5 34-.1z"></path>
  </symbol><symbol  viewBox='0 0 24 24' id='avito'>
    <circle cx="17.525" cy="17.525" r="6.487"></circle><circle cx="5.331" cy="17.525" r="3.02"></circle><circle cx="17.525" cy="5.331" r="4.175"></circle><circle cx="5.331" cy="5.331" r="5.331"></circle>
  </symbol><symbol  viewBox='0 0 448 512' id='bars'>
    <path fill="currentColor" d="M16 132h416c8.837 0 16-7.163 16-16V76c0-8.837-7.163-16-16-16H16C7.163 60 0 67.163 0 76v40c0 8.837 7.163 16 16 16zm0 160h416c8.837 0 16-7.163 16-16v-40c0-8.837-7.163-16-16-16H16c-8.837 0-16 7.163-16 16v40c0 8.837 7.163 16 16 16zm0 160h416c8.837 0 16-7.163 16-16v-40c0-8.837-7.163-16-16-16H16c-8.837 0-16 7.163-16 16v40c0 8.837 7.163 16 16 16z"></path>
  </symbol><symbol  viewBox='0 0 576 512' id='cart'>
    <path fill="currentColor" d="M528.12 301.319l47.273-208C578.806 78.301 567.391 64 551.99 64H159.208l-9.166-44.81C147.758 8.021 137.93 0 126.529 0H24C10.745 0 0 10.745 0 24v16c0 13.255 10.745 24 24 24h69.883l70.248 343.435C147.325 417.1 136 435.222 136 456c0 30.928 25.072 56 56 56s56-25.072 56-56c0-15.674-6.447-29.835-16.824-40h209.647C430.447 426.165 424 440.326 424 456c0 30.928 25.072 56 56 56s56-25.072 56-56c0-22.172-12.888-41.332-31.579-50.405l5.517-24.276c3.413-15.018-8.002-29.319-23.403-29.319H218.117l-6.545-32h293.145c11.206 0 20.92-7.754 23.403-18.681z"></path>
  </symbol><symbol  viewBox='0 0 448 512' id='facebook'>
    <path fill="currentColor" d="M400 32H48A48 48 0 0 0 0 80v352a48 48 0 0 0 48 48h137.25V327.69h-63V256h63v-54.64c0-62.15 37-96.48 93.67-96.48 27.14 0 55.52 4.84 55.52 4.84v61h-31.27c-30.81 0-40.42 19.12-40.42 38.73V256h68.78l-11 71.69h-57.78V480H400a48 48 0 0 0 48-48V80a48 48 0 0 0-48-48z"></path>
  </symbol><symbol  viewBox='0 0 24 24' id='instagram'>
    <path d="M11.999 5.843c-3.404 0-6.15 2.746-6.15 6.15s2.746 6.15 6.15 6.15 6.15-2.746 6.15-6.15-2.746-6.15-6.15-6.15zm0 10.148c-2.2 0-3.998-1.793-3.998-3.998s1.793-3.998 3.998-3.998 3.998 1.793 3.998 3.998-1.799 3.998-3.998 3.998zm7.835-10.399c0 .797-.642 1.434-1.434 1.434-.797 0-1.434-.642-1.434-1.434s.642-1.434 1.434-1.434c.792-.001 1.434.642 1.434 1.434zm4.073 1.456c-.091-1.921-.53-3.624-1.938-5.026C20.567.62 18.865.181 16.943.084c-1.98-.112-7.916-.112-9.896 0-1.916.091-3.618.53-5.026 1.932S.181 5.121.084 7.042c-.112 1.98-.112 7.916 0 9.896.091 1.921.53 3.624 1.938 5.026 1.408 1.402 3.104 1.841 5.026 1.938 1.98.112 7.916.112 9.896 0 1.921-.091 3.624-.53 5.026-1.938 1.402-1.402 1.841-3.104 1.938-5.026.112-1.98.112-7.91-.001-9.89zm-2.558 12.016c-.417 1.049-1.226 1.857-2.28 2.28-1.579.626-5.326.482-7.07.482s-5.497.139-7.07-.482c-1.049-.417-1.857-1.226-2.28-2.28-.626-1.579-.482-5.326-.482-7.07s-.139-5.497.482-7.07c.417-1.049 1.226-1.857 2.28-2.28 1.579-.626 5.326-.482 7.07-.482s5.497-.139 7.07.482c1.049.417 1.857 1.226 2.28 2.28.626 1.579.482 5.326.482 7.07s.144 5.496-.482 7.07z"></path>
  </symbol><symbol  viewBox='0 0 512 512' id='search'>
    <path fill="currentColor" d="M505 442.7L405.3 343c-4.5-4.5-10.6-7-17-7H372c27.6-35.3 44-79.7 44-128C416 93.1 322.9 0 208 0S0 93.1 0 208s93.1 208 208 208c48.3 0 92.7-16.4 128-44v16.3c0 6.4 2.5 12.5 7 17l99.7 99.7c9.4 9.4 24.6 9.4 33.9 0l28.3-28.3c9.4-9.4 9.4-24.6.1-34zM208 336c-70.7 0-128-57.2-128-128 0-70.7 57.2-128 128-128 70.7 0 128 57.2 128 128 0 70.7-57.2 128-128 128z"></path>
  </symbol><symbol  viewBox='0 0 352 512' id='times'>
    <path fill="currentColor" d="M242.72 256l100.07-100.07c12.28-12.28 12.28-32.19 0-44.48l-22.24-22.24c-12.28-12.28-32.19-12.28-44.48 0L176 189.28 75.93 89.21c-12.28-12.28-32.19-12.28-44.48 0L9.21 111.45c-12.28 12.28-12.28 32.19 0 44.48L109.28 256 9.21 356.07c-12.28 12.28-12.28 32.19 0 44.48l22.24 22.24c12.28 12.28 32.2 12.28 44.48 0L176 322.72l100.07 100.07c12.28 12.28 32.2 12.28 44.48 0l22.24-22.24c12.28-12.28 12.28-32.19 0-44.48L242.72 256z"></path>
  </symbol><symbol  viewBox='0 0 512 512' id='twitter'>
    <path fill="currentColor" d="M459.37 151.716c.325 4.548.325 9.097.325 13.645 0 138.72-105.583 298.558-298.558 298.558-59.452 0-114.68-17.219-161.137-47.106 8.447.974 16.568 1.299 25.34 1.299 49.055 0 94.213-16.568 130.274-44.832-46.132-.975-84.792-31.188-98.112-72.772 6.498.974 12.995 1.624 19.818 1.624 9.421 0 18.843-1.3 27.614-3.573-48.081-9.747-84.143-51.98-84.143-102.985v-1.299c13.969 7.797 30.214 12.67 47.431 13.319-28.264-18.843-46.781-51.005-46.781-87.391 0-19.492 5.197-37.36 14.294-52.954 51.655 63.675 129.3 105.258 216.365 109.807-1.624-7.797-2.599-15.918-2.599-24.04 0-57.828 46.782-104.934 104.934-104.934 30.213 0 57.502 12.67 76.67 33.137 23.715-4.548 46.456-13.32 66.599-25.34-7.798 24.366-24.366 44.833-46.132 57.827 21.117-2.273 41.584-8.122 60.426-16.243-14.292 20.791-32.161 39.308-52.628 54.253z"></path>
  </symbol><symbol  viewBox='0 0 448 512' id='user'>
    <path fill="currentColor" d="M224 256c70.7 0 128-57.3 128-128S294.7 0 224 0 96 57.3 96 128s57.3 128 128 128zm89.6 32h-16.7c-22.2 10.2-46.9 16-72.9 16s-50.6-5.8-72.9-16h-16.7C60.2 288 0 348.2 0 422.4V464c0 26.5 21.5 48 48 48h352c26.5 0 48-21.5 48-48v-41.6c0-74.2-60.2-134.4-134.4-134.4z"></path>
  </symbol><symbol  viewBox='0 0 24 24' id='vk'>
    <path d="M23.44 5.845c.165-.556 0-.966-.792-.966h-2.621c-.668 0-.975.352-1.139.743 0 0-1.335 3.253-3.222 5.362-.61.61-.89.805-1.224.805-.165 0-.418-.196-.418-.752V5.845c0-.668-.187-.966-.739-.966H9.164c-.418 0-.668.312-.668.601 0 .632.943.779 1.041 2.559v3.863c0 .846-.151 1.001-.485 1.001-.89 0-3.053-3.266-4.334-7.005-.258-.725-.512-1.018-1.184-1.018H.913c-.748 0-.899.352-.899.743 0 .694.89 4.143 4.143 8.7 2.167 3.111 5.22 4.797 7.997 4.797 1.669 0 1.874-.374 1.874-1.019 0-2.973-.151-3.253.685-3.253.387 0 1.055.196 2.612 1.696 1.78 1.78 2.074 2.577 3.071 2.577h2.621c.748 0 1.126-.374.908-1.113-.498-1.553-3.867-4.748-4.019-4.962-.387-.498-.276-.721 0-1.166.005-.005 3.204-4.508 3.534-6.035z"></path>
  </symbol><symbol  viewBox='0 0 576 512' id='youtube'>
    <path fill="currentColor" d="M549.655 124.083c-6.281-23.65-24.787-42.276-48.284-48.597C458.781 64 288 64 288 64S117.22 64 74.629 75.486c-23.497 6.322-42.003 24.947-48.284 48.597-11.412 42.867-11.412 132.305-11.412 132.305s0 89.438 11.412 132.305c6.281 23.65 24.787 41.5 48.284 47.821C117.22 448 288 448 288 448s170.78 0 213.371-11.486c23.497-6.321 42.003-24.171 48.284-47.821 11.412-42.867 11.412-132.305 11.412-132.305s0-89.438-11.412-132.305zm-317.51 213.508V175.185l142.739 81.205-142.739 81.201z"></path>
  </symbol></svg>